<svg width="1920" height="1080" viewBox="0 0 1920 1080" fill="none" xmlns="http://www.w3.org/2000/svg">
<rect width="1920" height="1080" fill="#E5E5E5"/>
<g id="ligne" clip-path="url(#clip0_0_1)">
<rect width="1920" height="1080" fill="white"/>
<text id="credits" fill="#2F4DB8" xml:space="preserve" style="white-space: pre" font-family="Arial Rounded MT Bold" font-size="32" letter-spacing="0em"><tspan x="919.922" y="474.266">Cr&#xe9;dits : &#10;</tspan><tspan x="652.359" y="511.266">Musique : Meydan_-_Underwater_Pt._2.mp3&#10;</tspan><tspan x="763.297" y="548.266">R&#xe9;alis&#xe9; dans le cours de Web&#10;</tspan><tspan x="832.922" y="585.266">par Julie MARCELIN&#10;</tspan><tspan x="879.781" y="622.266">2e ann&#xe9;e DNA </tspan></text>
<circle id="rect-1" cx="823" cy="198" r="83" fill="#2F4DB8"/>
<circle id="rect-2" cx="1507" cy="164" r="50" fill="#2988CD"/>
<circle id="rect-3" cx="1685" cy="856" r="178" fill="#1440DF"/>
<circle id="rect-4" cx="691" cy="901" r="132" fill="#36B2DA"/>
<circle id="ellipse-5" cx="194.5" cy="301.5" r="77.5" fill="#1D5A14"/>
<circle id="ellipse-6" cx="1223" cy="347" r="178" fill="#29811C"/>
<circle id="ellipse-7" cx="1749" cy="526" r="57" fill="#329E22"/>
<circle id="ellipse-8" cx="958.5" cy="675.5" r="127.5" fill="#3CBE29"/>
<circle id="ellipse-1" cx="511" cy="250" r="160" fill="#39C8DB"/>
<circle id="ellipse-2" cx="1707.5" cy="264.5" r="133.5" fill="#288A97"/>
<circle id="ellipse-4" cx="1297" cy="789" r="160" fill="#227691"/>
<circle id="ellipse-3" cx="397" cy="776" r="125" fill="#22719E"/>
<path id="l-1" d="M90.5 -1.5V473.5" stroke="#1140EA" stroke-width="10"/>
<path id="l-2" d="M229 0L229 685" stroke="#1140EA" stroke-width="10"/>
<path id="l-3" d="M386 0V831" stroke="#1140EA" stroke-width="10"/>
<path id="l-4" d="M555 0V658" stroke="#1140EA" stroke-width="10"/>
<path id="l-5" d="M709 0V358" stroke="#1140EA" stroke-width="10"/>
<path id="l-6" d="M1542 1083V562.5" stroke="#119CEA" stroke-width="10"/>
<path id="l-7" d="M1680 1082L1680 403" stroke="#119CEA" stroke-width="10"/>
<g id="ver">
<path id="l1" d="M405.543 690.656C372.627 694.214 290.782 679.98 226.729 594.576" stroke="black" stroke-width="3"/>
<path id="l2" d="M404.543 691.987C355.614 698.214 241.742 669.035 177.689 502.497" stroke="black" stroke-width="3"/>
<path id="l3" d="M412.745 690.537C354.919 694.096 225.39 656.909 169.877 479.696C114.364 302.483 251.722 288.427 327.341 303.55" stroke="black" stroke-width="3"/>
<path id="l4" d="M413.842 693.536C354.237 697.984 221.149 658.306 165.636 464.012C110.124 269.718 307.976 288.756 413.842 322.562L488.57 346.582" stroke="black" stroke-width="3"/>
<path id="l5" d="M410.71 693.665C361.781 697.223 247.909 665.909 183.856 512.181C119.803 358.454 194.532 309.347 239.902 304.009C274.598 297.782 371.745 297.07 482.77 344.042C593.795 391.015 634.006 411.654 640.234 416.102" stroke="black" stroke-width="3"/>
<path id="l6" d="M406.864 692.975C368.61 693.864 277.156 671.624 217.373 575.544C157.591 479.465 155.1 400.288 161.327 372.71C164.886 339.794 203.495 279.833 329.466 303.319C486.93 332.677 481.592 343.352 633.718 412.743C785.844 482.133 649.731 514.16 625.711 495.478" stroke="black" stroke-width="3"/>
<path id="l7" d="M293.341 655.808C250.639 626.45 163.633 536.242 157.228 410.271C150.823 284.3 280.886 288.392 346.718 306.185C373.407 310.633 438.527 324.867 485.5 346.218C532.472 367.569 611.826 403.154 645.632 418.278C682.107 436.96 739.043 478.594 674.99 495.675C610.937 512.756 593.144 470.766 592.255 447.635" stroke="black" stroke-width="3"/>
<path id="l8" d="M234.393 597.116C201.477 558.863 140.448 458.869 159.664 364.924C178.88 270.98 317.128 290.196 383.85 311.547C438.117 331.118 557.86 375.6 602.697 396.951C658.744 423.64 736.141 463.673 688.101 490.361C640.062 517.05 581.346 487.693 592.022 415.633C600.562 357.985 680.984 352.47 720.128 356.918" stroke="black" stroke-width="3"/>
<path id="l9" d="M183.81 521.327C161.569 475.956 130.433 371.87 183.81 318.492C237.188 265.115 359.066 301.59 413.333 326.499C471.159 348.74 594.283 396.424 624.174 409.234C661.539 425.247 733.598 470.618 682.89 491.969C632.181 513.32 546.777 467.949 610.83 379.877C631.291 361.194 697.835 335.04 800.32 379.877" stroke="black" stroke-width="3"/>
<path id="l10" d="M157.124 441.51C149.117 405.925 145.381 329.417 194.488 308.066C255.872 281.377 319.926 289.384 402.661 321.41C468.849 347.032 583.255 392.58 632.184 412.152C672.217 431.724 736.804 475.671 674.886 494.887C597.489 518.907 576.138 436.172 592.151 412.152C608.164 388.132 618.84 353.437 706.912 356.106C777.371 358.241 844.804 401.477 869.714 422.828" stroke="black" stroke-width="3"/>
<path id="l11" d="M157.338 363.622C161.786 342.271 184.026 299.035 237.404 296.9C304.126 294.231 312.132 288.893 421.556 326.258C509.095 356.149 573.682 384.973 595.033 395.648C649.3 416.999 743.423 466.107 685.775 491.728C613.715 523.754 555 430.344 616.384 382.304C677.768 334.264 741.821 352.946 789.861 374.297C837.901 395.648 883.272 433.013 917.967 457.033" stroke="black" stroke-width="3"/>
<path id="l12" d="M216.729 300.068C240.748 292.951 311.207 286.724 400.881 318.75C512.974 358.784 654.424 417.499 673.106 433.512C691.788 449.525 739.828 484.221 659.762 497.565C579.696 510.91 558.345 385.472 659.762 356.115C740.896 332.629 846.583 397.927 889.285 433.512C910.636 453.974 962.412 493.829 998.709 489.559" stroke="black" stroke-width="3"/>
<path id="l13" d="M308.47 297.338C357.4 308.903 476.609 341.641 562.013 380.073C668.768 428.113 679.444 436.119 692.788 454.801C706.133 473.484 708.801 489.497 652.755 497.503C596.709 505.51 559.344 422.775 618.06 380.073C676.775 337.371 716.808 353.384 756.841 361.391C796.874 369.397 876.941 425.444 911.636 454.801C946.331 484.159 991.702 510.848 1087.78 465.477" stroke="black" stroke-width="3"/>
<path id="l14" d="M407.55 324.027C470.713 345.378 607.182 394.485 647.749 420.106C698.457 452.133 725.146 484.159 666.431 494.835C607.715 505.51 546.331 446.795 621.06 374.735C695.788 302.676 831.901 390.748 914.636 457.47C980.824 510.848 1066.76 479.711 1101.46 457.47L1186.86 406.762" stroke="black" stroke-width="3"/>
<path id="l15" d="M503.967 360.221C553.786 376.234 659.829 416.801 685.451 450.963C717.477 493.665 682.782 496.334 661.431 499.002C640.08 501.671 560.013 482.989 594.709 413.598C629.404 344.208 706.802 330.863 789.537 378.903C872.272 426.943 949.669 509.678 1037.74 488.327C1125.81 466.976 1197.87 392.247 1227.23 378.903C1250.72 368.228 1263.71 363.779 1267.27 362.89" stroke="black" stroke-width="3"/>
<path id="l16" d="M607.742 395.477C631.762 407.931 681.937 436.043 690.477 448.854C701.153 464.867 725.173 496.894 661.12 499.563C597.067 502.232 562.371 435.51 623.755 379.463C685.139 323.417 773.212 366.119 778.55 368.788C783.888 371.457 941.351 488.887 1000.07 491.556C1058.78 494.225 1130.84 454.192 1170.87 419.496C1210.91 384.801 1245.6 368.788 1264.29 363.45C1282.97 358.112 1333.68 352.775 1363.03 363.45" stroke="black" stroke-width="3"/>
<path id="l17" d="M696.216 455.856C707.781 472.759 715.966 505.497 656.183 501.227C581.455 495.889 570.779 421.16 618.819 383.796C666.859 346.432 736.249 338.425 843.004 413.154C949.759 487.882 1003.14 519.909 1099.22 466.531C1195.3 413.154 1208.64 373.121 1262.02 365.114C1315.4 357.108 1331.41 349.101 1392.79 373.121C1441.9 392.337 1470.19 407.816 1478.2 413.154" stroke="black" stroke-width="3"/>
<path id="l18" d="M615.277 489.164C595.705 476.709 567.237 438.989 609.939 387.747C663.316 323.693 775.409 363.727 855.475 422.442C935.542 481.157 1018.28 531.866 1127.7 449.131C1237.12 366.395 1242.46 353.051 1346.55 358.389C1429.82 362.659 1511.13 436.676 1541.38 473.15" stroke="black" stroke-width="3"/>
<path id="l19" d="M594.696 418.261C598.254 392.462 629.391 344.601 725.47 359.546C845.57 378.228 904.285 492.99 1005.7 490.321C1107.12 487.652 1123.13 447.619 1165.83 418.261C1208.54 388.904 1232.56 359.546 1304.62 359.546C1376.68 359.546 1454.07 364.884 1555.49 490.321C1572.39 508.114 1608.33 538.361 1616.87 517.01" stroke="black" stroke-width="3"/>
<path id="l20" d="M693.451 354.378C722.808 354.378 796.469 367.188 856.252 418.431C930.981 482.484 1032.4 525.186 1125.81 447.788C1219.22 370.391 1243.24 354.378 1317.97 354.378C1392.7 354.378 1478.1 394.411 1515.46 442.45C1552.83 490.49 1603.54 541.199 1616.88 517.179C1630.23 493.159 1646.24 477.146 1646.24 455.795" stroke="black" stroke-width="3"/>
<path id="l21" d="M803.206 385.011C822.777 396.576 868.326 425.578 893.947 449.064C925.974 478.422 1022.05 510.448 1088.78 473.084C1155.5 435.72 1208.87 366.329 1267.59 360.991C1326.31 355.654 1358.33 347.647 1435.73 385.011C1513.13 422.376 1531.81 475.753 1566.5 499.773C1601.2 523.793 1609.21 537.137 1619.88 510.448C1630.56 483.76 1643.9 489.097 1646.57 451.733C1648.71 421.842 1663.47 391.239 1670.59 379.673" stroke="black" stroke-width="3"/>
<path id="l22" d="M880.272 436.383C904.292 459.513 968.345 503.105 1032.4 492.429C1112.46 479.085 1171.18 412.363 1200.54 393.681C1229.89 374.999 1304.62 337.634 1422.05 377.667C1539.48 417.701 1526.14 487.091 1579.52 511.111C1591.97 522.676 1617.95 538.867 1622.22 511.111C1627.56 476.416 1640.9 511.111 1646.24 452.396C1651.58 393.681 1702.29 321.621 1712.96 334.965" stroke="black" stroke-width="3"/>
<path id="l23" d="M984.027 490.921C1003.6 499.817 1064.63 501.063 1152.17 434.875C1261.59 352.14 1258.92 360.146 1365.68 362.815C1472.43 365.484 1525.81 450.888 1533.82 464.233C1541.82 477.577 1568.51 509.603 1579.19 512.272C1589.86 514.941 1613.88 541.63 1621.89 512.272C1629.89 482.915 1640.57 490.921 1643.24 480.246C1645.91 469.57 1645.91 432.206 1659.25 405.517C1672.6 378.829 1691.28 330.789 1709.96 333.458C1724.91 335.593 1732.2 353.919 1733.98 362.815" stroke="black" stroke-width="3"/>
<path id="l24" d="M1075.77 482.3C1097.12 470.735 1152.63 437.463 1203.87 396.896C1267.93 346.188 1321.31 364.87 1350.66 364.87C1380.02 364.87 1446.74 364.87 1510.8 436.93C1525.92 458.281 1562.04 504.185 1585.52 516.996C1614.88 533.009 1617.55 527.671 1620.22 508.989C1622.89 490.307 1638.9 490.307 1641.57 484.969C1644.24 479.632 1644.24 447.605 1646.91 436.93C1649.58 426.254 1668.26 378.214 1676.27 364.87C1684.27 351.526 1708.29 308.824 1732.31 359.532C1751.53 400.099 1750.99 422.696 1748.33 428.923" stroke="black" stroke-width="3"/>
<path id="l25" d="M1116 456.497C1137.33 442.664 1184.2 411.497 1201 397.497C1222 379.997 1255 359.997 1296 359.997C1337 359.997 1339.5 364.997 1372 363.997C1398 363.197 1439.83 381.664 1457.5 390.997C1472 399.83 1506.4 425.897 1528 459.497C1555 501.497 1591.5 517.997 1597 521.997C1602.5 525.997 1619.5 529.497 1619 510.497C1618.6 495.297 1630.5 488.83 1636.5 487.497C1639 486.83 1643.8 481.097 1643 463.497C1642.2 445.897 1650.33 422.164 1654.5 412.497C1660.17 395.997 1674.3 359.997 1685.5 347.997C1699.5 332.997 1710.5 325.997 1725.5 347.997C1740.5 369.997 1751 406.997 1749 423.497C1747 439.997 1739.5 442.497 1736 453.997" stroke="black" stroke-width="3"/>
<path id="l26" d="M1198 401.03C1212.5 386.03 1256.2 356.53 1315 358.53C1373.8 360.53 1413.5 371.03 1426 376.03C1449.17 383.363 1503.8 412.23 1537 469.03C1546.17 481.363 1572 509.43 1602 523.03C1607.83 525.863 1619.8 527.13 1621 509.53C1622.2 491.93 1632.83 487.196 1638 487.03C1640.67 485.863 1645.8 477.43 1645 453.03C1644.2 428.63 1661 393.196 1669.5 378.53C1678.67 356.363 1701.9 317.53 1721.5 339.53C1731.17 353.03 1750.4 386.93 1750 414.53C1750.17 418.696 1749.5 429.13 1745.5 437.53C1740.5 448.03 1724.5 462.03 1733 497.03" stroke="black" stroke-width="3"/>
<path id="l27" d="M1267 364.308C1287 359.641 1340.8 354.008 1396 368.808C1451.2 383.608 1488 411.308 1499.5 423.308C1508.67 432.308 1528.8 454.207 1536 469.807C1543.2 485.407 1569.33 504.641 1581.5 512.307C1592.67 521.141 1616 534.107 1620 515.307C1625 491.807 1623.5 495.307 1637.5 487.807C1651.5 480.307 1644 455.808 1644.5 448.808C1645 441.808 1655 406.308 1664.5 387.808C1674 369.308 1697 315.808 1721 340.308C1740.2 359.908 1747.67 391.807 1749 405.307C1750.17 413.141 1750.2 432.207 1741 445.807C1729.5 462.807 1724.5 494.307 1741 512.307C1757.5 530.307 1745.5 524.807 1738.5 533.807C1732.9 541.007 1737.83 548.141 1741 550.807" stroke="black" stroke-width="3"/>
<path id="l28" d="M1362 362.39C1394.33 366.89 1469 387.29 1509 432.89C1517.67 442.89 1535.5 465.09 1537.5 473.89C1539.5 482.69 1572.33 506.89 1588.5 517.89C1599.5 525.89 1621.7 534.39 1622.5 504.39C1622.33 499.89 1625.5 490.29 1639.5 487.89C1653.5 485.49 1648.67 463.89 1644.5 453.39C1644.17 447.724 1645.8 431.19 1655 410.39C1666.5 384.39 1691.5 314.39 1721.5 340.89C1745.5 362.09 1749.83 405.39 1749 424.391C1748.33 428.391 1745.2 439.391 1738 451.391C1729 466.391 1727.5 495.391 1736.5 505.891C1745.5 516.391 1757 524.891 1743.5 530.391C1730 535.891 1737 553.891 1753.5 560.891C1766.7 566.491 1754.67 574.557 1747 577.891C1742.5 580.391 1735.5 586.291 1743.5 589.891" stroke="black" stroke-width="3"/>
<path id="l29" d="M1459 395.58C1479 404.914 1523.1 434.58 1539.5 478.58C1553.67 492.247 1586.3 520.78 1603.5 525.58C1620.7 530.38 1623.67 513.247 1623 504.08C1623.83 499.247 1628.7 489.38 1641.5 488.58C1654.3 487.78 1649.5 465.58 1645.5 454.58C1644.17 446.58 1646.5 421.78 1666.5 386.58C1691.5 342.58 1702 312.58 1734 356.58C1759.6 391.78 1749 431.914 1740.5 447.58C1733.17 461.747 1722.9 494.18 1740.5 510.58C1747.17 515.914 1756.8 527.68 1742 532.08C1723.5 537.58 1748.5 561.58 1756.5 562.58C1764.5 563.58 1760.5 572.58 1754 575.08C1747.5 577.58 1731 585.08 1747 592.08C1763 599.08 1849 638.58 1641.5 651.08" stroke="black" stroke-width="3"/>
<path id="l30" d="M1526 452.299C1530.5 458.632 1539.4 472.899 1539 479.299C1555.67 496.132 1594.1 528.999 1614.5 525.799C1617.5 524.966 1623.6 518.899 1624 501.299C1626 496.466 1633 487.099 1645 488.299C1657 489.499 1650 466.466 1645 454.799C1644.5 446.466 1647.3 422.599 1662.5 393.799C1681.5 357.799 1697 322.299 1721 341.299C1745 360.299 1761 401.799 1740.5 447.799C1724.1 484.599 1733.67 504.799 1740.5 510.299C1747.5 516.132 1757.3 528.799 1740.5 532.799C1723.7 536.799 1742.83 554.466 1754.5 562.799C1760.17 563.799 1767.6 567.999 1752 576.799C1732.5 587.799 1739.5 587.299 1760.5 598.799C1781.5 610.299 1784.5 622.799 1767 631.299C1749.5 639.799 1682.5 650.799 1645 651.299C1607.5 651.799 1618.5 637.799 1590 636.799C1561.5 635.799 1568.5 644.299 1556.5 647.799" stroke="black" stroke-width="3"/>
<path id="l31" d="M1584 517.382C1595.17 525.715 1618.4 536.482 1622 512.882C1625.6 489.282 1637.17 487.049 1642.5 488.882C1648.83 491.049 1658.2 487.582 1645 456.382C1645.83 441.549 1652 405.482 1670 379.882C1692.5 347.882 1696 320.882 1727 348.382C1751.8 370.382 1751 407.215 1747.5 422.882L1738 452.382C1731.5 468.549 1723.4 503.582 1743 514.382C1747.83 518.715 1754.3 528.582 1741.5 533.382C1725.5 539.382 1736 547.382 1743 554.882C1748.6 560.882 1753.33 563.382 1755 563.882C1760 565.049 1765.8 569.682 1749 578.882C1728 590.382 1748.5 591.882 1755 596.882C1761.5 601.882 1793.5 615.882 1766 632.382C1738.5 648.882 1642 651.882 1632.5 651.882C1624.9 651.882 1614 645.882 1609.5 642.882C1604.33 639.549 1590.6 633.882 1577 637.882C1573.5 638.382 1565.9 640.182 1563.5 643.382C1560.5 647.382 1552 650.882 1546 649.882C1540 648.882 1526 617.882 1470 617.382" stroke="black" stroke-width="3"/>
<path id="l32" d="M1645 456.879C1646.17 440.712 1653.6 401.379 1674 373.379C1699.5 338.379 1701 327.379 1723 345.879C1745 364.379 1754.5 388.879 1746.5 427.379C1738.5 465.879 1717 482.379 1741 512.379C1746.67 516.212 1754.8 525.779 1742 533.379C1726 542.879 1733.5 545.379 1751 561.879C1757 563.545 1766.2 568.479 1755 574.879C1741 582.879 1734 588.879 1746 592.379C1758 595.879 1791.5 615.879 1770 629.879C1752.8 641.079 1693.17 648.545 1665.5 650.879C1652.33 652.379 1623.1 653.079 1611.5 643.879C1597 632.379 1572.5 636.879 1566.5 640.379C1560.5 643.879 1556.5 652.379 1544.5 648.879C1532.5 645.379 1525 618.879 1473.5 617.379C1422 615.879 1396 664.379 1363 672.379" stroke="black" stroke-width="3"/>
<path id="l33" d="M1696.5 342.41C1705.83 335.41 1729.1 334.51 1747.5 386.91C1748.5 399.743 1748.7 429.21 1741.5 444.41C1732.5 463.41 1720.5 496.91 1741.5 512.91C1758.3 525.71 1746.17 533.576 1738 535.91C1733.17 537.743 1727.1 543.81 1741.5 553.41L1750 562.41C1757.67 564.243 1768 570.21 1748 579.41C1723 590.91 1753 593.91 1757 598.41C1761 602.91 1794.5 617.91 1765 632.41C1741.4 644.01 1684.83 650.243 1659.5 651.91C1647.33 653.243 1618.8 652.61 1602 639.41C1593.67 636.243 1573.5 633.21 1559.5 646.41C1555 650.576 1542.6 654.61 1529 637.41C1515.4 620.21 1482.33 616.91 1467.5 617.41C1454.67 618.41 1423.3 626.31 1400.5 649.91C1372 679.41 1309 695.91 1252 646.41" stroke="black" stroke-width="3"/>
<path id="l34" d="M1739 454C1731.67 467.833 1722.6 499.4 1745 515C1750.17 519.333 1756.2 529.6 1739 536C1717.5 544 1738 551 1743 555C1747 558.2 1750 561.667 1751 563C1758.67 564.667 1768.7 570.6 1747.5 581C1721 594 1753 596 1758.5 600C1764 604 1788.5 615.5 1774.5 628C1760.5 640.5 1669 652.5 1656.5 652.5C1644 652.5 1619.5 651 1603.5 639.5C1590.7 630.3 1569.83 640.333 1561 646.5C1555.83 650.833 1542 654.6 1528 635C1510.5 610.5 1457.5 619 1453 620C1448.5 621 1412 633.5 1397.5 654.5C1383 675.5 1333.5 680.5 1318.5 677C1303.5 673.5 1278.5 668.5 1250 642.5C1221.5 616.5 1221 581 1129 581" stroke="black" stroke-width="3"/>
<path id="l35" d="M1734.5 537C1728.67 538.833 1721.5 544.8 1739.5 554C1742.33 555.667 1748.1 559.8 1748.5 563C1756.33 564.833 1766 571.4 1742 583C1734.67 585.667 1727.4 592.9 1757 600.5C1767 605.167 1784.6 616.9 1775 626.5C1765.4 636.1 1708.67 646.167 1681.5 650C1664.17 652.833 1624.5 655.1 1604.5 641.5C1584.5 627.9 1565.5 639.5 1558.5 647C1553.5 651 1539.6 653.7 1524 632.5C1504.5 606 1443 619.5 1428 628.5C1413 637.5 1399.5 645.5 1392.5 659C1386.9 669.8 1360.83 675.167 1348.5 676.5C1339 678 1314.5 678.8 1292.5 670C1265 659 1244 641.5 1235 627.5C1226 613.5 1206 590 1168.5 584C1131 578 1070.5 581.5 1045 596.5" stroke="black" stroke-width="3"/>
<path id="l36" d="M1771 607.031C1781.17 613.531 1789.5 628.931 1741.5 638.531C1681.5 650.531 1640.5 658.531 1609 642.531C1577.5 626.531 1566 640.031 1561 646.031C1556 652.031 1538 650.531 1525.5 631.031C1513 611.531 1464 615.531 1456 619.031C1448 622.531 1417.5 626.031 1394 658.031C1391.83 663.531 1376.9 674.931 1334.5 676.531C1292.1 678.131 1253.17 646.864 1239 631.031C1229 613.864 1198.4 579.831 1156 581.031C1103 582.531 1044 574.531 995 637.031" stroke="black" stroke-width="3"/>
<path id="l37" d="M1708 645.587C1686.67 650.42 1637.5 657.187 1611.5 645.587C1579 631.087 1573.5 630.587 1558.5 647.587C1552.5 651.753 1536.8 654.187 1522 630.587C1507.2 606.987 1456.5 617.753 1433 626.087C1423.67 629.42 1402.1 641.087 1390.5 661.087C1376.83 671.92 1336.3 687.987 1283.5 665.587C1272.5 660.253 1247.8 645.987 1237 631.587C1223.5 613.587 1204.5 586.087 1162 581.087C1128 577.087 1080.17 585.087 1060.5 589.587C1049 592.087 1019.7 604.887 994.5 636.087C969.3 667.287 937.667 663.087 925 657.087" stroke="black" stroke-width="3"/>
<path id="l38" d="M1583 635.54C1579.33 634.206 1569.2 634.84 1558 648.04C1546.8 661.24 1528 640.206 1520 628.04C1513.67 620.873 1491.1 609.34 1451.5 620.54C1411.9 631.74 1394.33 651.873 1390.5 660.54C1382 670.706 1350.4 686.64 1292 669.04C1278.17 664.04 1246.8 648.34 1232 625.54C1213.5 597.04 1177 579.04 1153.5 580.04C1130 581.04 1077.5 582.54 1055.5 591.04C1033.5 599.54 1004 619.04 990 640.54C976 662.04 939.5 665.04 925.5 657.04C911.5 649.04 886 625.04 867 622.04" stroke="black" stroke-width="3"/>
<path id="l39" d="M1472.5 615.538C1452.5 617.705 1407.9 629.438 1389.5 659.038C1383.33 668.871 1355.9 684.738 1295.5 669.538C1279.5 664.205 1243.3 646.438 1226.5 618.038C1205.5 582.538 1159 578.538 1153 579.038C1147 579.538 1078 579.038 1058 589.038C1038 599.038 1001.5 615.538 989 641.038C976.5 666.538 931 661.538 924 656.038C917 650.538 879 621.538 867.5 621.538C856 621.538 834 616.038 801 631.038" stroke="black" stroke-width="3"/>
<path id="l40" d="M1386.5 663.005C1374.83 672.005 1340.2 686.105 1295 670.505C1249.8 654.905 1229.17 629.338 1224.5 618.505C1217 605.505 1190.8 579.605 1146 580.005C1090 580.505 1056.5 585.005 1042 597.005C1027.5 609.005 996 620.005 986.5 645.005C977 670.005 928 660.005 924.5 658.005C921 656.005 877 620.505 865.5 622.005C851.167 620.505 818.2 620.205 801 631.005C779.5 644.505 748 658.505 735 661.005" stroke="black" stroke-width="3"/>
<path id="l41" d="M1270 662.618C1258.17 657.285 1231.6 640.918 1220 618.118C1205.5 589.618 1158 581.618 1152.5 581.118C1147 580.618 1057.5 581.118 1043.5 594.618C1029.5 608.118 1012 612.618 1003 621.118C994 629.618 985.5 634.618 982 648.618C978.5 662.618 952 662.618 944.5 662.618C938.5 662.618 926.333 660.285 921 659.118C907.167 648.118 875.8 625.518 861 623.118C846 621.618 811.8 621.618 795 633.618C774 648.618 715.5 682.118 647 654.618" stroke="black" stroke-width="3"/>
<path id="l42" d="M1216.5 612.637C1208 602.803 1183.3 582.937 1152.5 582.137C1114 581.137 1056 585.637 1044 595.137C1032 604.637 1029.5 607.137 1019.5 611.637C1009.5 616.137 1000 623.637 990.5 633.637C981 643.637 984.5 651.137 978.5 655.137C972.5 659.137 962 667.637 921.5 660.137C908.167 649.47 877.5 627.337 861.5 624.137C841.5 620.137 809.5 624.137 794.5 634.637C779.5 645.137 747.5 667.637 688.5 665.137C641.3 663.137 606.5 628.97 595 612.137" stroke="black" stroke-width="3"/>
<path id="l43" d="M1116.5 582.057C1095.83 581.557 1050.3 585.057 1033.5 603.057C1030.67 604.89 1023.3 609.357 1016.5 612.557C1008 616.557 985 632.057 981 651.057C977.8 666.257 940 663.057 921.5 659.557C903.833 643.224 860.2 613.057 827 623.057C785.5 635.557 799.5 633.057 780.5 643.057C761.5 653.057 717.5 672.557 673 662.557C628.5 652.557 605 626.057 595.5 613.057C586 600.057 572 571.557 527 573.057" stroke="black" stroke-width="3"/>
<path id="l44" d="M1034 602.887C1029 605.554 1017.6 611.687 1012 614.887C1005 618.887 986 634.387 982.5 650.387C979 666.387 931 661.387 923.5 659.387C916 657.387 874.5 613.387 833 621.387C791.5 629.387 794 636.887 787.5 639.387C781 641.887 722 677.387 668 660.387C624.8 646.787 601.667 621.72 595.5 610.887C587.5 596.387 563.1 568.387 529.5 572.387C487.5 577.387 483 598.887 473 604.887" stroke="black" stroke-width="3"/>
<path id="l45" d="M968.5 659.234C956.667 660.734 931.1 662.834 923.5 659.234C914 654.734 863.5 605.234 820.5 623.734C813.5 625.067 797.6 629.834 790 638.234C782.4 646.634 743.167 657.734 724.5 662.234C699.167 667.567 638.3 665.434 597.5 614.234C588.667 596.734 560.7 564.134 519.5 573.734C511.5 574.067 491.3 580.634 474.5 604.234C453.5 633.734 425 693.734 397 694.734" stroke="black" stroke-width="3"/>
</g>
<g id="onde-1">
<circle id="cercle-1" cx="995" cy="493" r="35" stroke="#111C82" stroke-width="10"/>
<circle id="cercle-2" cx="995" cy="493" r="70" stroke="#1C2894" stroke-width="10"/>
<circle id="cercle-3" cx="995" cy="493" r="104" stroke="#303CA2" stroke-width="10"/>
<circle id="cercle-4" cx="995" cy="492" r="137" stroke="#424FB7" stroke-width="10"/>
<circle id="cercle-5" cx="995" cy="493" r="173" stroke="#5865CD" stroke-width="10"/>
<circle id="cercle-6" cx="995" cy="493" r="211" stroke="#737FE1" stroke-width="10"/>
<circle id="cercle-7" cx="995" cy="493" r="255" stroke="#8C97F3" stroke-width="10"/>
<circle id="cercle-8" cx="995" cy="493" r="299" stroke="#A5AEFF" stroke-width="10"/>
</g>
<g id="onde-2">
<circle id="cercle-9" cx="1270" cy="662" r="35" stroke="#1D8BF1" stroke-width="10"/>
<circle id="cercle-10" cx="1270" cy="662" r="70" stroke="#3295F0" stroke-width="10"/>
<circle id="cercle-11" cx="1270" cy="662" r="104" stroke="#489FEF" stroke-width="10"/>
<circle id="cercle-12" cx="1270" cy="661" r="137" stroke="#59A7EE" stroke-width="10"/>
<circle id="cercle-13" cx="1270" cy="662" r="173" stroke="#6CAFEC" stroke-width="10"/>
<circle id="cercle-14" cx="1270" cy="662" r="211" stroke="#87C0F4" stroke-width="10"/>
</g>
<g id="onde-3">
<circle id="cercle-15" cx="995" cy="493" r="35" stroke="#1FDEEA" stroke-width="10"/>
<circle id="cercle-16" cx="995" cy="493" r="70" stroke="#32DFEA" stroke-width="10"/>
<circle id="cercle-17" cx="995" cy="493" r="104" stroke="#46E0EA" stroke-width="10"/>
<circle id="cercle-18" cx="995" cy="492" r="137" stroke="#59E0E9" stroke-width="10"/>
<circle id="cercle-19" cx="995" cy="493" r="173" stroke="#6FE1E9" stroke-width="10"/>
<circle id="cercle-20" cx="995" cy="493" r="211" stroke="#86EAF1" stroke-width="10"/>
<circle id="cercle-21" cx="995" cy="493" r="255" stroke="#A1F2F8" stroke-width="10"/>
<circle id="cercle-22" cx="995" cy="493" r="299" stroke="#C9FBFF" stroke-width="10"/>
</g>
<g id="minutes">
<path id="m-11" d="M369.014 409.237L555.981 714.536" stroke="#1140EA" stroke-width="10"/>
<path id="m-10" d="M248.771 529.782L551.497 720.887" stroke="#1140EA" stroke-width="10"/>
<path id="m-9" d="M193 721.555L551 721.555" stroke="#1140EA" stroke-width="10"/>
<path id="m-8" d="M235.297 900.482L549.029 728.04" stroke="#1140EA" stroke-width="10"/>
<path id="m-7" d="M366.134 1036.19L552.192 730.334" stroke="#1140EA" stroke-width="10"/>
<path id="m-6" d="M557.515 1087.99L557.515 729.994" stroke="#1140EA" stroke-width="10"/>
<path id="m-5" d="M737.351 1041.27L560.589 729.95" stroke="#1140EA" stroke-width="10"/>
<path id="m-4" d="M876.847 898.965L563.174 726.416" stroke="#1140EA" stroke-width="10"/>
<path id="m-3" d="M930.134 721.335L572.134 721.335" stroke="#1140EA" stroke-width="10"/>
<path id="m-2" d="M874.511 535.732L565.757 716.937" stroke="#1140EA" stroke-width="10"/>
<path id="m-1" d="M744.372 404.67L560.706 711.966" stroke="#1140EA" stroke-width="10"/>
<path id="m-0" d="M551.213 359L556.022 716.968" stroke="#1140EA" stroke-width="10"/>
</g>
<g id="heures">
<path id="h-12" d="M556.142 714.989L554.833 589.278" stroke="#6784EC" stroke-width="10"/>
<path id="h-11" d="M557.787 717.483L492.026 610.337" stroke="#6784EC" stroke-width="10"/>
<path id="h-10" d="M554.134 721.335L447.134 655.335" stroke="#6784EC" stroke-width="10"/>
<path id="h-9" d="M548.85 721.302L423.134 722.047" stroke="#6784EC" stroke-width="10"/>
<path id="h-8" d="M552.723 726.268L442.134 786.061" stroke="#6784EC" stroke-width="10"/>
<path id="h-7" d="M552.471 729.287L487.803 837.098" stroke="#6784EC" stroke-width="10"/>
<path id="h-6" d="M557.514 729.335L556.76 855.05" stroke="#6784EC" stroke-width="10"/>
<path id="h-5" d="M560.203 729.629L623.025 838.525" stroke="#6784EC" stroke-width="10"/>
<path id="h-4" d="M562.469 725.862L672.542 786.598" stroke="#6784EC" stroke-width="10"/>
<path id="h-3" d="M567.13 721.108L692.848 721.282" stroke="#6784EC" stroke-width="10"/>
<path id="h-2" d="M562.134 718.513L671.014 655.662" stroke="#6784EC" stroke-width="10"/>
<path id="h-1" d="M558.069 716.364L622.615 608.48" stroke="#6784EC" stroke-width="10"/>
</g>
<g id="texte">
<rect id="Rectangle 1" width="1920" height="1083" fill="white"/>
<text id="t-1" fill="#2F4DB8" xml:space="preserve" style="white-space: pre" font-family="Asset" font-size="110" letter-spacing="0em"><tspan x="83" y="560.114">U</tspan></text>
<text id="t-2" fill="#2F4DB8" xml:space="preserve" style="white-space: pre" font-family="Asset" font-size="110" letter-spacing="0em"><tspan x="275" y="559.114">N</tspan></text>
<text id="t-3" fill="#2F4DB8" xml:space="preserve" style="white-space: pre" font-family="Asset" font-size="110" letter-spacing="0em"><tspan x="460" y="558.114">D</tspan></text>
<text id="t-4" fill="#2F4DB8" xml:space="preserve" style="white-space: pre" font-family="Asset" font-size="110" letter-spacing="0em"><tspan x="629" y="560.114">E</tspan></text>
<text id="t-5" fill="#2F4DB8" xml:space="preserve" style="white-space: pre" font-family="Asset" font-size="110" letter-spacing="0em"><tspan x="796" y="560.114">R</tspan></text>
<text id="t-6" fill="#2F4DB8" xml:space="preserve" style="white-space: pre" font-family="Asset" font-size="110" letter-spacing="0em"><tspan x="961" y="561.114">W</tspan></text>
<text id="t-7" fill="#2F4DB8" xml:space="preserve" style="white-space: pre" font-family="Asset" font-size="110" letter-spacing="0em"><tspan x="1160" y="561.114">A</tspan></text>
<text id="t-8" fill="#2F4DB8" xml:space="preserve" style="white-space: pre" font-family="Asset" font-size="110" letter-spacing="0em"><tspan x="1327" y="561.114">T</tspan></text>
<text id="t-9" fill="#2F4DB8" xml:space="preserve" style="white-space: pre" font-family="Asset" font-size="110" letter-spacing="0em"><tspan x="1480" y="561.114">E</tspan></text>
<text id="t-10" fill="#2F4DB8" xml:space="preserve" style="white-space: pre" font-family="Asset" font-size="110" letter-spacing="0em"><tspan x="1640" y="562.114">R</tspan></text>
</g>
</g>
<defs>
<clipPath id="clip0_0_1">
<rect width="1920" height="1080" fill="white"/>
</clipPath>
</defs>
</svg>
